<svg xmlns="http://www.w3.org/2000/svg" version="1.1" xmlns:xlink="http://www.w3.org/1999/xlink" xmlns:svgjs="http://svgjs.com/svgjs" width="100" height="100" x="0" y="0" viewBox="0 0 128 128" style="enable-background:new 0 0 512 512" xml:space="preserve" class=""><g><g xmlns="http://www.w3.org/2000/svg"><path d="m110 102.223a13 13 0 0 0 -9.908-11.269l-24.171-5.773-.958-11.273a36.492 36.492 0 0 1 -4.963 3.064 13.191 13.191 0 0 1 -11.992 0 36.372 36.372 0 0 1 -4.963-3.063l-.957 11.272-24.182 5.773a13 13 0 0 0 -9.906 11.269l-2.072 19.47h96.146z" fill="#3e3e3e" data-original="#ffe17d" class=""></path><path d="m75.921 121.693v-36.512a11.921 11.921 0 0 1 -23.842 0v36.512z" fill="#6905ff" data-original="#e6646e" class=""></path><path d="m43.899 87.135-4.658 22.471 12.838-4.502v-19.923z" fill="#3e3e3e" data-original="#ffd164" class=""></path><path d="m84.101 87.135 4.658 22.471-12.838-4.502v-19.923z" fill="#3e3e3e" data-original="#ffd164" class=""></path><path d="m39.241 44.792 4.05-4.085a12.21 12.21 0 0 0 3.438-7.026l.832-6.417a71.31 71.31 0 0 0 16.439 1.751 71.31 71.31 0 0 0 16.439-1.751l.832 6.417a12.2 12.2 0 0 0 3.438 7.026l4.05 4.085a8.157 8.157 0 0 1 3.748-.7v-11.429c0-26.356-24.829-26.356-24.829-26.356h-29.528c0 6.8 6.16 10.065 6.16 10.065a13.259 13.259 0 0 0 -8.816 12.493v15.228a8.157 8.157 0 0 1 3.747.699z" fill="#000000" data-original="#cd916e" class=""></path><path d="m39.241 44.792s-5.592-2.682-7.473 2.264c-1.452 3.82 1.087 11.13 9.107 9.594h46.25c8.019 1.536 10.559-5.774 9.107-9.594-1.881-4.946-7.473-2.264-7.473-2.264z" fill="#ffe4cf" data-original="#feb983" class=""></path><path d="m39.241 44.792 4.05-4.085a12.21 12.21 0 0 0 3.438-7.026l.832-6.417a71.31 71.31 0 0 0 16.439 1.751 71.31 71.31 0 0 0 16.439-1.751l.832 6.417a12.2 12.2 0 0 0 3.438 7.026l4.05 4.085c0 19.472-11.435 28.436-18.763 32.18a13.191 13.191 0 0 1 -11.992 0c-7.328-3.744-18.763-12.708-18.763-32.18z" fill="#ffe4cf" data-original="#fcd0a3" class=""></path><path d="m74.96 73.908a36.492 36.492 0 0 1 -4.96 3.064 13.191 13.191 0 0 1 -11.992 0 36.372 36.372 0 0 1 -4.963-3.063l-.957 11.272a11.921 11.921 0 0 0 23.842 0l-.958-11.273z" fill="#ffe4cf" data-original="#feb983" class=""></path><g><path d="m17.475 107.151a1.747 1.747 0 0 0 -1.926 1.555l-1.363 12.8a1.751 1.751 0 0 0 1.556 1.926c.063.006.125.009.187.009a1.751 1.751 0 0 0 1.738-1.564l1.363-12.8a1.751 1.751 0 0 0 -1.555-1.926z" fill="#000000" data-original="#000000" class=""></path><path d="m113.813 121.508-2.072-19.471a14.777 14.777 0 0 0 -11.241-12.785l-22.942-5.48-.769-9.059a34.388 34.388 0 0 0 11.553-16.149c.291.021.582.043.865.043a8.772 8.772 0 0 0 6.952-3.08 9.528 9.528 0 0 0 1.708-9.092 6.109 6.109 0 0 0 -3.421-3.67c-.063-.026-.126-.043-.189-.066v-10.036c0-7.789-2.087-14.168-6.2-18.959a1.75 1.75 0 0 0 -2.657 2.281c3.556 4.138 5.359 9.749 5.359 16.678v9.737a10.079 10.079 0 0 0 -1.551.353l-3.255-3.282a10.519 10.519 0 0 1 -2.944-6.019l-.832-6.417a1.751 1.751 0 0 0 -2.177-1.464 70.014 70.014 0 0 1 -16 1.695 70.335 70.335 0 0 1 -16-1.7 1.751 1.751 0 0 0 -2.178 1.469l-.831 6.416a10.522 10.522 0 0 1 -2.946 6.02l-3.245 3.285a10.128 10.128 0 0 0 -1.552-.352v-13.539a11.531 11.531 0 0 1 7.652-10.844 1.75 1.75 0 0 0 .233-3.195 10.79 10.79 0 0 1 -5.06-6.769h27.509a1.75 1.75 0 0 0 0-3.5h-29.432a1.75 1.75 0 0 0 -1.75 1.75 13.09 13.09 0 0 0 4.544 9.741 15.044 15.044 0 0 0 -7.2 12.817v13.835c-.063.023-.127.04-.19.066a6.112 6.112 0 0 0 -3.421 3.67 9.53 9.53 0 0 0 1.708 9.092 8.769 8.769 0 0 0 6.953 3.08c.283 0 .574-.022.865-.043a34.387 34.387 0 0 0 11.554 16.15l-.77 9.058-22.943 5.479a14.781 14.781 0 0 0 -10.727 10.2 1.75 1.75 0 1 0 3.358.985 11.276 11.276 0 0 1 8.183-7.776l13.314-3.18-4.1 19.775a1.751 1.751 0 0 0 2.292 2.007l10.509-3.686v14.121a1.75 1.75 0 0 0 3.5 0v-27.415a13.605 13.605 0 0 0 20.342 0v27.41a1.75 1.75 0 0 0 3.5 0v-14.121l10.509 3.686a1.75 1.75 0 0 0 2.293-2.007l-4.1-19.775 13.314 3.18a11.273 11.273 0 0 1 8.574 9.752l2.072 19.471a1.75 1.75 0 0 0 1.738 1.564c.062 0 .124 0 .188-.009a1.75 1.75 0 0 0 1.554-1.926zm-19.213-73.829a6.047 6.047 0 0 1 -1.118 5.6 5.282 5.282 0 0 1 -4.13 1.827 43.5 43.5 0 0 0 1.137-9.071 4.447 4.447 0 0 1 2.673-.014 2.653 2.653 0 0 1 1.438 1.658zm-60.075 5.6a6.043 6.043 0 0 1 -1.117-5.6 2.65 2.65 0 0 1 1.438-1.66 4.444 4.444 0 0 1 2.672.015 43.56 43.56 0 0 0 1.138 9.07 5.288 5.288 0 0 1 -4.135-1.828zm6.475-7.772 3.537-3.567a14.033 14.033 0 0 0 3.93-8.035l.586-4.519a78.659 78.659 0 0 0 14.947 1.38 78.659 78.659 0 0 0 14.95-1.38l.586 4.519a14.033 14.033 0 0 0 3.93 8.035l3.534 3.567c-.279 18.227-11.237 26.552-17.8 29.906a11.457 11.457 0 0 1 -10.4 0c-6.566-3.354-17.524-11.679-17.8-29.906zm.586 61.424 3.8-18.353 4.942-1.18v16.465zm22.414-11.579a10.182 10.182 0 0 1 -10.169-10.125l.7-8.209c.939.581 1.842 1.085 2.678 1.512a14.968 14.968 0 0 0 13.585 0c.836-.427 1.739-.931 2.679-1.512l.7 8.212a10.18 10.18 0 0 1 -10.173 10.122zm22.417 11.579-8.746-3.068v-16.463l4.941 1.18z" fill="#000000" data-original="#000000" class=""></path><path d="m71.318 64.5a1.751 1.751 0 0 0 -1.718-3.054 12.658 12.658 0 0 1 -5.6 1.147 12.686 12.686 0 0 1 -5.594-1.141 1.75 1.75 0 0 0 -1.724 3.048 15.836 15.836 0 0 0 7.318 1.593 15.841 15.841 0 0 0 7.318-1.593z" fill="#000000" data-original="#000000" class=""></path><path d="m57.062 43.521a1.75 1.75 0 0 0 2.329-2.613 7.837 7.837 0 0 0 -5.153-1.691 7.837 7.837 0 0 0 -5.153 1.691 1.735 1.735 0 0 0 -.13 2.432 1.766 1.766 0 0 0 2.456.183 5.361 5.361 0 0 1 5.651 0z" fill="#000000" data-original="#000000" class=""></path><path d="m56.653 48.207a2.415 2.415 0 1 0 -2.415 2.414 2.415 2.415 0 0 0 2.415-2.414z" fill="#000000" data-original="#000000" class=""></path><path d="m70.935 43.523a5.359 5.359 0 0 1 5.65 0 1.75 1.75 0 0 0 2.329-2.613 8.7 8.7 0 0 0 -10.305 0 1.734 1.734 0 0 0 -.13 2.432 1.769 1.769 0 0 0 2.456.181z" fill="#000000" data-original="#000000" class=""></path><path d="m73.762 45.792a2.415 2.415 0 1 0 2.414 2.415 2.415 2.415 0 0 0 -2.414-2.415z" fill="#000000" data-original="#000000" class=""></path><path d="m75.542 9.542a25.5 25.5 0 0 1 3.712 1.6 1.75 1.75 0 0 0 1.639-3.092 29.168 29.168 0 0 0 -4.22-1.817 1.75 1.75 0 0 0 -1.131 3.313z" fill="#000000" data-original="#000000" class=""></path></g></g></g></svg>